<svg xmlns="http://www.w3.org/2000/svg" version="1.1" xmlns:xlink="http://www.w3.org/1999/xlink" width="200" height="200"><svg xmlns="http://www.w3.org/2000/svg" version="1.1" xmlns:xlink="http://www.w3.org/1999/xlink" viewBox="0 0 200 200"><rect width="200" height="200" fill="url('#gradient')"></rect><defs><linearGradient id="SvgjsLinearGradient1001" gradientTransform="rotate(45 0.5 0.5)"><stop offset="0%" stop-color="#dee90b"></stop><stop offset="100%" stop-color="#d9e241"></stop></linearGradient></defs><g><g fill="#1b3855" transform="matrix(3.1916883116883117,0,0,3.1916883116883117,9.341773844554822,123.62083642043076)" stroke="#0e5278" stroke-width="0.2"><path d="M10.11-14.22L12.09-5.30L13.72-14.22L17.12-14.22L14.10 0L10.55 0L8.64-8.11L6.78 0L3.23 0L0.21-14.22L3.61-14.22L5.24-5.30L7.20-14.22L10.11-14.22ZM17.60-4.82L17.59-5.38Q17.59-6.96 18.20-8.20Q18.82-9.43 19.97-10.10Q21.12-10.76 22.68-10.76L22.68-10.76Q25.05-10.76 26.42-9.29Q27.78-7.82 27.78-5.29L27.78-5.29L27.78-5.18Q27.78-2.71 26.41-1.25Q25.04 0.20 22.70 0.20L22.70 0.20Q20.44 0.20 19.07-1.16Q17.71-2.51 17.60-4.82L17.60-4.82ZM20.89-5.77L20.88-5.18Q20.88-3.71 21.34-3.03Q21.80-2.34 22.70-2.34L22.70-2.34Q24.45-2.34 24.49-5.05L24.49-5.05L24.49-5.38Q24.49-8.22 22.68-8.22L22.68-8.22Q21.03-8.22 20.89-5.77L20.89-5.77ZM35.68-10.64L35.63-7.59L34.54-7.67Q32.99-7.67 32.55-6.69L32.55-6.69L32.55 0L29.26 0L29.26-10.57L32.34-10.57L32.45-9.21Q33.28-10.76 34.77-10.76L34.77-10.76Q35.29-10.76 35.68-10.64L35.68-10.64ZM36.21-5.36L36.21-5.36Q36.21-7.87 37.29-9.32Q38.38-10.76 40.32-10.76L40.32-10.76Q41.74-10.76 42.71-9.65L42.71-9.65L42.71-15L46.01-15L46.01 0L43.05 0L42.88-1.13Q41.87 0.20 40.30 0.20L40.30 0.20Q38.42 0.20 37.31-1.25Q36.21-2.70 36.21-5.36ZM39.51-5.76L39.50-5.16Q39.50-2.34 41.14-2.34L41.14-2.34Q42.24-2.34 42.71-3.26L42.71-3.26L42.71-7.29Q42.26-8.22 41.16-8.22L41.16-8.22Q39.64-8.22 39.51-5.76L39.51-5.76ZM53.41-2.97L53.41-2.97Q53.41-3.39 52.97-3.64Q52.53-3.90 51.30-4.17Q50.07-4.44 49.27-4.89Q48.47-5.33 48.05-5.97Q47.63-6.60 47.63-7.42L47.63-7.42Q47.63-8.88 48.83-9.82Q50.03-10.76 51.97-10.76L51.97-10.76Q54.06-10.76 55.33-9.81Q56.60-8.87 56.60-7.32L56.60-7.32L53.30-7.32Q53.30-8.59 51.96-8.59L51.96-8.59Q51.45-8.59 51.09-8.31Q50.74-8.02 50.74-7.59L50.74-7.59Q50.74-7.15 51.17-6.88Q51.60-6.60 52.54-6.43Q53.49-6.25 54.20-6.01L54.20-6.01Q56.58-5.19 56.58-3.07L56.58-3.07Q56.58-1.62 55.30-0.71Q54.01 0.20 51.97 0.20L51.97 0.20Q50.62 0.20 49.55-0.29Q48.49-0.78 47.89-1.62Q47.29-2.46 47.29-3.39L47.29-3.39L50.37-3.39Q50.39-2.66 50.86-2.32Q51.33-1.98 52.06-1.98L52.06-1.98Q52.73-1.98 53.07-2.26Q53.41-2.53 53.41-2.97Z"></path></g></g></svg><style>@media (prefers-color-scheme: light) { :root { filter: none; } }
@media (prefers-color-scheme: dark) { :root { filter: none; } }
</style></svg>